<svg xmlns="http://www.w3.org/2000/svg" width="48" height="48" viewBox="0 0 48 48" fill="none">
  <defs>
    <linearGradient id="trophy" x1="50%" y1="0%" x2="50%" y2="100%">
      <stop offset="0%" stop-color="#FFD700"/>
      <stop offset="100%" stop-color="#C8960C"/>
    </linearGradient>
    <linearGradient id="base" x1="50%" y1="0%" x2="50%" y2="100%">
      <stop offset="0%" stop-color="#8B6914"/>
      <stop offset="100%" stop-color="#5C4409"/>
    </linearGradient>
  </defs>
  <!-- Cup body -->
  <path d="M14 8h20v2c0 8-3 14-10 16-7-2-10-8-10-16V8z" fill="url(#trophy)"/>
  <!-- Left handle -->
  <path d="M14 10H9c0 0-1 0-1 2s1 6 4 6h2" fill="none" stroke="url(#trophy)" stroke-width="2.5" stroke-linecap="round"/>
  <!-- Right handle -->
  <path d="M34 10h5c0 0 1 0 1 2s-1 6-4 6h-2" fill="none" stroke="url(#trophy)" stroke-width="2.5" stroke-linecap="round"/>
  <!-- Stem -->
  <rect x="22" y="26" width="4" height="6" rx="1" fill="url(#trophy)"/>
  <!-- Base -->
  <rect x="16" y="32" width="16" height="4" rx="2" fill="url(#base)"/>
  <!-- Base bottom -->
  <rect x="14" y="35" width="20" height="5" rx="2" fill="url(#base)"/>
  <!-- Star on cup -->
  <polygon points="24,11 25.5,14.5 29,14.5 26.3,16.8 27.2,20 24,18 20.8,20 21.7,16.8 19,14.5 22.5,14.5" fill="#FFF8DC" opacity="0.9"/>
  <!-- Shine -->
  <path d="M17 10c0 0 1 8 7 11" fill="none" stroke="#FFF8DC" stroke-width="1" stroke-linecap="round" opacity="0.4"/>
  <!-- Confetti dots -->
  <circle cx="6" cy="6" r="1.2" fill="#FF6B6B"/>
  <circle cx="42" cy="4" r="1" fill="#4ECDC4"/>
  <circle cx="3" cy="20" r="0.8" fill="#FFE66D"/>
  <circle cx="45" cy="18" r="1.1" fill="#FF6B6B"/>
  <circle cx="8" cy="38" r="0.9" fill="#4ECDC4"/>
  <circle cx="40" cy="40" r="1.2" fill="#FFE66D"/>
  <circle cx="10" cy="3" r="0.7" fill="#A8E6CF"/>
  <circle cx="38" cy="8" r="0.9" fill="#FF8A80"/>
</svg>
